<?xml version="1.0" encoding="UTF-8" standalone="no"?>
<!-- Created with Inkscape (http://www.inkscape.org/) -->
<svg
   xmlns:svg="http://www.w3.org/2000/svg"
   xmlns="http://www.w3.org/2000/svg"
   version="1.0"
   width="353.35901"
   height="511.61801"
   viewBox="0 0 353.359 511.618"
   id="Layer_1"
   xml:space="preserve"><defs
   id="defs22" />

<metadata>
<rdf:RDF
      xmlns="http://web.resource.org/cc/"
      xmlns:dc="http://purl.org/dc/elements/1.1/"
      xmlns:rdf="http://www.w3.org/1999/02/22-rdf-syntax-ns#">
      <Work rdf:about="">
         <dc:title>Goalie Mask BW</dc:title>
         <dc:description>Simple Goalie Mask - Ice Hockey BW</dc:description>
         <dc:subject>
          <rdf:Bag>
            <rdf:li>sports</rdf:li>
            <rdf:li>hockey</rdf:li>
	      <rdf:li>goalie</rdf:li>
	      <rdf:li>mask</rdf:li>
          </rdf:Bag>
         </dc:subject>
         <dc:publisher><Agent rdf:about="http://www.openclipart.org/"><dc:title>Open Clip Art Project</dc:title></Agent></dc:publisher>
         <dc:creator><Agent rdf:about=""><dc:title>Gerald G.</dc:title></Agent></dc:creator>
         <dc:rights><Agent rdf:about="http://web.resource.org/cc/PublicDomain"><dc:title>Public Domain</dc:title></Agent></dc:rights>
         <dc:date>2006/09/28</dc:date>
         <dc:format>image/svg+xml</dc:format>
         <dc:type>http://purl.org/dc/dcmitype/StillImage</dc:type>
         <license rdf:resource="http://web.resource.org/cc/PublicDomain" />
      </Work>
      <License rdf:about="http://web.resource.org/cc/PublicDomain">
         <permits rdf:resource="http://web.resource.org/cc/Reproduction" />
         <permits rdf:resource="http://web.resource.org/cc/Distribution" />
         <permits rdf:resource="http://web.resource.org/cc/DerivativeWorks" />
      </License>
   </rdf:RDF>
</metadata>

<path
   d="M 176.687,1.015 C 168.047,-0.569 161.099,-0.245 155.843,1.843 C 150.551,3.967 146.988,7.711 145.007,13.507 L 145.007,13.507 C 131.759,15.199 119.303,18.439 106.667,23.515 C 93.995,28.555 80.243,35.503 69.983,43.531 C 59.723,51.487 51.839,60.559 45.791,71.035 L 45.791,71.035 C 40.895,69.559 35.999,71.323 30.815,76.867 C 25.559,82.375 17.639,94.831 14.975,103.543 C 12.311,112.075 12.311,119.959 14.975,127.735 L 14.975,127.735 L 9.971,160.243 L 9.971,160.243 C 5.219,159.703 2.159,164.095 0.791,173.563 C -0.613,183.067 0.035,203.947 1.619,216.907 C 3.203,229.615 7.883,238.003 9.971,250.279 C 11.879,262.627 11.735,277.999 13.283,290.275 C 14.831,302.336 13.499,308.276 19.151,322.82 C 24.803,337.364 37.583,360.332 46.655,377 C 55.619,393.56 64.835,407.132 72.503,422 C 79.955,436.832 84.815,452.96 91.655,465.38 C 98.423,477.728 105.875,487.952 113.327,495.368 C 120.707,502.496 126.971,506.023 135.864,508.723 C 144.648,511.351 154.548,512.179 165.851,511.207 L 187.524,511.207 C 198.864,512.179 208.692,511.351 217.547,508.723 C 226.224,506.023 232.703,502.495 240.047,495.368 C 247.427,487.952 254.808,477.727 261.755,465.38 C 268.595,452.96 273.312,436.832 280.907,422 C 288.467,407.132 297.683,393.56 306.755,377 C 315.755,360.332 328.535,337.364 334.259,322.82 C 339.804,308.276 338.507,302.336 340.091,290.275 C 341.604,278 341.423,262.628 343.44,250.279 C 345.456,238.003 350.135,229.615 351.792,216.907 C 353.304,203.947 353.952,183.067 352.62,173.563 C 351.216,164.095 348.156,159.703 343.44,160.243 L 343.44,160.243 L 338.436,127.735 L 338.436,127.735 C 341.064,119.959 341.064,112.075 338.436,103.543 C 335.664,94.831 327.744,82.375 322.595,76.867 C 317.339,71.323 312.516,69.559 307.583,71.035 L 307.583,71.035 C 301.571,60.559 293.615,51.487 283.427,43.531 C 273.024,35.503 259.451,28.555 246.743,23.515 C 234.107,18.439 221.507,15.199 208.367,13.507 L 208.367,13.507 C 206.351,7.711 202.787,3.967 197.531,1.843 C 192.239,-0.245 185.291,-0.569 176.687,1.015 L 176.687,1.015 z "
   style="fill-rule:evenodd;stroke:#000000;stroke-width:0.036;stroke-miterlimit:10"
   id="path5" />
<path
   d="M 44.207,82.771 C 41.075,84.463 37.259,90.511 33.587,96.451 C 29.807,102.283 22.427,113.083 22.139,117.763 C 21.923,122.299 27.359,126.547 32.039,123.847 C 36.611,120.967 46.151,107.251 49.535,101.023 C 52.775,94.687 52.667,89.647 51.839,86.587 C 50.831,83.455 47.267,81.115 44.207,82.771 L 44.207,82.771 z "
   style="fill:#ffffff;fill-rule:evenodd;stroke:#000000;stroke-width:0.036;stroke-miterlimit:10"
   id="path7" />
<path
   d="M 176.615,12.751 C 171.071,12.751 165.023,12.427 161.386,14.299 C 157.678,16.135 151.09,21.211 154.546,23.407 C 158.038,25.387 174.023,26.683 181.942,26.467 C 189.717,26.179 198.79,23.875 200.95,21.895 C 202.93,19.771 198.106,15.847 194.11,14.299 C 189.972,12.787 182.051,12.643 176.615,12.751 L 176.615,12.751 z "
   style="fill:#ffffff;fill-rule:evenodd;stroke:#000000;stroke-width:0.036;stroke-miterlimit:10"
   id="path9" />
<path
   d="M 172.871,142.099 C 169.595,143.215 170.855,145.231 169.307,146.779 L 169.307,146.779 C 147.887,146.635 130.715,146.743 116.819,147.247 C 102.959,147.643 92.987,148.435 86.615,149.479 L 86.615,149.479 C 82.223,144.403 78.767,142.099 76.103,142.567 C 73.367,143.035 71.711,146.131 70.739,152.143 L 70.739,152.143 C 66.131,152.899 62.135,153.835 58.607,154.807 C 55.007,155.779 52.019,156.787 49.499,157.975 L 49.499,157.975 C 46.511,153.727 43.955,151.891 41.687,152.611 C 39.383,153.223 37.439,156.391 35.855,161.971 L 35.855,161.971 C 33.551,163.303 31.175,164.311 28.727,165.535 C 26.207,166.615 23.651,167.695 20.915,168.631 L 20.915,168.631 L 18.359,163.411 L 26.711,131.443 L 26.711,131.443 C 31.715,133.099 36.395,132.343 41.183,129.175 C 45.827,125.899 51.731,118.519 54.863,112.435 C 57.887,106.135 59.039,98.755 59.435,92.671 C 59.795,86.623 59.039,81.439 57.167,76.687 L 57.167,76.687 C 61.847,68.947 67.679,62.323 74.663,56.131 C 81.683,49.975 91.367,44.323 98.999,40.147 C 106.379,35.899 112.211,33.235 119.555,31.039 C 126.899,28.807 134.711,27.151 143.135,26.467 L 143.135,26.467 C 143.999,29.383 146.736,31.363 151.488,32.551 C 156.168,33.631 165.492,33.091 171.288,33.307 C 176.832,33.379 180.072,33.379 185.725,33.307 C 191.449,33.091 200.737,33.631 205.525,32.551 C 210.241,31.363 212.941,29.383 213.913,26.467 L 213.913,26.467 C 222.301,27.151 230.113,28.807 237.493,31.039 C 244.801,33.235 250.489,35.899 258.013,40.147 C 265.61,44.323 275.15,49.975 282.35,56.131 C 289.406,62.323 295.058,68.947 299.881,76.687 L 299.881,76.687 C 297.902,81.439 297.182,86.623 297.577,92.671 C 297.901,98.755 299.053,106.135 302.149,112.435 C 305.172,118.519 311.077,125.899 315.829,129.175 C 320.581,132.343 325.225,133.099 330.301,131.443 L 330.301,131.443 L 338.654,163.411 L 336.637,170.719 L 336.638,170.719 C 333.938,168.955 330.986,167.335 327.925,166.003 C 324.722,164.527 321.625,163.483 318.097,162.439 L 318.097,162.439 C 316.837,156.643 315.253,153.511 313.201,153.043 C 311.149,152.539 308.737,154.663 305.965,159.559 L 305.965,159.559 C 303.194,157.651 299.989,156.175 296.209,154.843 C 292.394,153.511 288.073,152.467 283.249,151.711 L 283.249,151.711 C 282.493,146.527 280.981,143.647 278.569,143.215 C 276.121,142.675 272.844,144.583 268.741,148.795 L 268.741,148.795 C 252.829,147.787 238.393,147.067 224.461,146.779 C 210.602,146.419 197.929,146.419 186.049,146.779 L 186.049,146.779 L 182.486,142.315 L 182.486,142.315 C 182.483,142.315 176.183,140.983 172.871,142.099 L 172.871,142.099 z "
   style="fill:#ffffff;fill-rule:evenodd;stroke:#000000;stroke-width:0.036;stroke-miterlimit:10"
   id="path11" />
<path
   d="M 312.371,82.771 C 315.359,84.463 319.283,90.511 323.027,96.451 C 326.699,102.283 334.115,113.083 334.439,117.763 C 334.583,122.299 329.111,126.547 324.539,123.847 C 319.859,120.967 310.319,107.251 307.043,101.023 C 303.659,94.687 303.875,89.647 304.775,86.587 C 305.711,83.455 309.167,81.115 312.371,82.771 L 312.371,82.771 z "
   style="fill:#ffffff;fill-rule:evenodd;stroke:#000000;stroke-width:0.036;stroke-miterlimit:10"
   id="path13" />
<path
   d="M 178.551,144.835 C 177.646,144.511 176.777,144.691 175.944,145.519 C 175.038,146.275 174.169,147.607 173.336,149.515 L 173.336,149.515 C 164.425,149.083 154.899,148.939 143.924,149.083 C 132.914,149.191 117.918,149.911 108.139,150.415 C 98.395,150.775 91.006,151.351 85.826,151.747 L 85.826,151.747 C 83.436,148.435 81.335,146.383 79.669,145.735 C 77.93,145.015 76.446,146.275 75.612,147.715 C 74.67,149.083 74.381,151.171 74.453,153.979 L 74.453,153.979 C 69.961,154.951 65.578,156.067 61.16,157.327 C 56.705,158.515 52.286,159.847 47.904,161.323 L 47.904,161.323 C 46.673,158.479 45.477,156.643 44.318,156.211 C 43.05,155.671 41.493,156.895 40.769,158.227 C 39.936,159.487 39.754,161.467 39.827,164.023 L 39.827,164.023 C 33.669,166.255 28.816,168.307 25.121,170.467 C 21.39,172.519 19.543,173.563 17.768,176.515 C 15.957,179.431 14.726,183.175 14.219,187.891 L 14.219,187.891 C 14.147,189.223 14.654,193.039 15.885,199.195 C 17.116,205.423 19.254,216.295 21.319,224.863 C 23.311,233.323 26.39,240.703 27.476,249.631 C 28.346,258.451 26.824,270.367 27.259,277.747 C 27.802,285.018 28.708,289.051 30.265,293.299 C 31.678,297.295 33.38,299.707 35.517,302.479 C 37.581,305.324 40.117,307.267 42.435,310.112 C 44.644,312.811 46.854,315.691 48.918,318.752 L 48.918,318.752 C 48.447,323.144 49.135,325.988 50.982,327.284 C 52.757,328.58 55.727,328.183 59.747,326.384 L 59.747,326.384 C 63.695,330.704 67.68,334.7 71.845,338.228 C 75.938,341.829 80.067,344.781 84.377,347.624 L 84.377,347.624 C 83.11,349.784 82.965,351.656 83.942,353.384 C 84.812,355.076 87.963,357.2 90.063,357.668 C 92.164,358.028 94.192,357.38 96.438,355.724 L 96.438,355.724 C 99.915,359.108 103.935,362.781 109.079,366.884 C 114.149,370.988 120.09,376.28 126.61,380.276 C 133.057,384.129 139.831,387.764 147.473,390.068 C 155.042,392.337 162.975,393.596 171.668,393.848 L 171.668,393.848 C 171.342,394.964 171.741,396.008 172.864,396.98 C 173.95,397.88 175.725,398.781 178.333,399.537 L 178.333,399.537 L 178.551,144.835 L 178.551,144.835 z M 62.32,280.447 C 67.499,287.035 72.28,292.47 76.663,297.15 C 81.082,301.686 83.908,303.703 88.471,308.058 C 92.89,312.378 97.816,317.382 103.249,323.214 L 103.249,323.214 C 100.496,325.158 97.997,327.426 95.751,329.874 C 93.433,332.394 91.44,334.914 89.63,337.974 L 89.63,337.974 C 85.392,334.482 81.046,330.846 76.446,327.066 C 71.737,323.178 67.137,319.291 62.102,315.115 L 62.102,315.115 C 61.088,306.871 60.726,299.923 60.726,294.127 C 60.798,288.367 61.233,283.759 62.32,280.447 L 62.32,280.447 z M 118.498,329.011 C 115.781,330.415 113.499,332.467 111.218,334.771 C 108.864,337.112 106.762,340.82 105.06,343.124 C 103.322,345.428 102.09,347.156 101.221,348.452 L 101.221,348.452 C 104.155,351.08 107.233,353.924 110.747,356.588 C 114.116,359.18 117.23,361.52 121.903,364.724 C 126.575,367.964 133.675,372.968 138.71,375.848 C 143.527,378.548 146.099,379.556 151.459,380.96 C 156.856,382.22 163.158,383.084 170.764,383.552 L 170.764,383.552 L 170.764,355.508 L 170.764,355.508 C 166.816,355.112 162.217,354.068 156.674,352.088 C 150.988,350.036 142.947,346.616 137.587,343.772 C 132.226,340.821 128.024,337.472 124.837,334.989 C 121.612,332.503 119.548,330.559 118.498,329.011 L 118.498,329.011 z M 130.088,323.646 C 134.507,321.09 139.179,318.678 144.395,316.806 C 149.575,314.79 156.457,312.702 160.984,311.91 C 165.367,311.082 168.626,311.082 170.763,311.91 L 170.763,311.91 L 170.763,342.473 L 170.763,342.473 C 167.794,343.085 164.135,342.797 159.643,341.61 C 155.008,340.385 148.668,338.118 143.706,335.202 C 138.709,332.179 134.218,328.327 130.088,323.646 L 130.088,323.646 z M 32.112,234.979 C 33.525,237.355 35.517,240.163 38.233,243.943 C 40.877,247.579 44.137,251.971 48.012,256.975 L 48.012,256.975 C 47.795,265.543 47.65,272.167 47.577,277.532 C 47.505,282.752 47.505,286.387 47.577,288.439 L 47.577,288.439 C 43.412,286.711 40.369,283.292 38.45,278.179 C 36.385,272.887 36.277,262.988 35.733,257.623 C 35.045,252.367 35.444,250.135 34.828,246.499 C 34.212,242.647 33.307,238.903 32.112,234.979 L 32.112,234.979 z M 66.413,247.795 L 62.574,251.215 L 61.886,262.123 L 61.886,262.123 C 66.993,268.135 71.666,273.643 76.447,278.791 C 81.01,283.795 83.799,286.675 89.848,292.687 C 95.897,298.7 103.503,305.899 112.812,314.719 L 112.812,314.719 C 117.339,312.595 122.446,310.579 128.278,308.528 C 134.146,306.475 140.376,303.704 147.365,302.551 C 154.247,301.327 161.383,300.895 169.17,301.255 L 169.17,301.255 L 169.17,298.051 L 169.17,298.051 C 163.231,298.735 156.457,298.087 148.272,296.107 C 140.05,293.983 129.545,290.456 120.527,286.063 C 111.399,281.671 103.467,276.379 94.376,270.043 C 85.319,263.563 76.047,256.327 66.413,247.795 L 66.413,247.795 z M 73.692,237.355 C 79.306,229.507 85.681,223.027 93.251,217.915 C 100.712,212.659 110.057,208.879 118.497,206.575 C 126.9,204.271 134.651,204.559 143.272,204.235 C 151.711,203.839 160.295,203.839 169.169,204.235 L 169.169,204.235 L 169.169,288.259 L 169.169,288.259 C 163.809,288.871 157.579,288.511 150.081,286.783 C 142.512,284.982 133.42,282.823 124.618,278.215 C 115.708,273.463 106.399,266.047 97.815,259.171 C 89.195,252.259 81.335,245.131 73.692,237.355 L 73.692,237.355 z M 39.139,174.715 C 31.858,175.975 27.186,178.495 24.831,182.419 C 22.441,186.343 23.31,192.643 25.049,198.007 C 26.678,203.299 31.17,208.555 34.611,213.631 C 37.871,218.491 41.348,223.099 44.608,227.311 C 47.723,231.451 50.548,234.943 53.228,238.219 L 53.228,238.219 L 58.009,232.243 L 58.009,232.243 C 53.771,222.199 50.367,213.667 47.795,206.359 C 45.151,198.979 43.956,193.903 42.543,188.611 C 41.058,183.247 39.972,178.747 39.139,174.715 L 39.139,174.715 z M 52.105,171.295 C 56.09,170.215 59.893,169.351 63.913,168.307 C 67.825,167.227 71.773,166.363 75.757,165.319 L 75.757,165.319 C 77.133,170.899 80.14,175.903 84.631,180.475 C 89.158,184.975 94.845,190.123 102.814,192.463 C 110.819,194.551 120.815,193.651 132.117,193.939 C 143.273,194.299 155.515,194.515 169.423,194.587 L 169.423,194.587 L 169.423,198.223 L 169.423,198.223 C 163.121,197.827 155.515,197.611 146.207,197.575 C 136.826,197.539 122.808,196.711 113.934,198.007 C 104.915,199.123 100.569,200.887 92.781,204.847 C 84.921,208.843 76.627,214.387 67.354,221.767 L 67.354,221.767 C 62.537,210.463 59.023,200.671 56.416,192.247 C 53.88,183.715 52.395,176.911 52.105,171.295 L 52.105,171.295 z M 89.159,163.375 C 100.749,161.575 112.992,160.639 126.43,160.171 C 139.833,159.703 153.886,159.919 169.17,160.819 L 169.17,160.819 L 169.17,186.487 L 169.17,186.487 C 157.471,186.847 146.967,186.847 137.116,186.487 C 127.118,186.055 117.484,186.055 110.312,184.111 C 103.14,181.987 97.924,177.739 94.375,174.283 C 90.825,170.719 89.086,167.263 89.159,163.375 L 89.159,163.375 z "
   style="fill:#ffffff;fill-rule:evenodd;stroke:#ffffff;stroke-width:0.036;stroke-miterlimit:10"
   id="path15" />
<path
   d="M 177.551,144.835 C 178.379,144.511 179.243,144.691 180.144,145.519 C 180.972,146.275 181.835,147.607 182.736,149.515 L 182.736,149.515 C 191.556,149.083 201.024,148.939 211.967,149.083 C 222.839,149.191 237.707,149.911 247.535,150.415 C 257.183,150.775 264.527,151.351 269.711,151.747 L 269.711,151.747 C 272.051,148.435 274.14,146.383 275.831,145.735 C 277.487,145.015 278.927,146.275 279.863,147.715 C 280.763,149.083 281.051,151.171 281.015,153.979 L 281.015,153.979 C 285.443,154.951 289.798,156.067 294.227,157.327 C 298.582,158.515 302.975,159.847 307.403,161.323 L 307.403,161.323 C 308.555,158.479 309.743,156.643 310.966,156.211 C 312.118,155.671 313.666,156.895 314.494,158.227 C 315.286,159.487 315.466,161.467 315.431,164.023 L 315.431,164.023 C 321.515,166.255 326.338,168.307 330.046,170.467 C 333.647,172.519 335.483,173.563 337.355,176.515 C 339.119,179.431 340.342,183.175 340.882,187.891 L 340.882,187.891 C 340.918,189.223 340.414,193.039 339.227,199.195 C 337.895,205.423 335.771,216.295 333.827,224.863 C 331.775,233.323 328.715,240.703 327.707,249.631 C 326.735,258.451 328.247,270.367 327.923,277.747 C 327.276,285.018 326.411,289.051 324.936,293.299 C 323.459,297.295 321.768,299.707 319.715,302.479 C 317.556,305.324 315.071,307.267 312.839,310.112 C 310.608,312.811 308.411,315.691 306.396,318.752 L 306.396,318.752 C 306.828,323.144 306.144,325.988 304.343,327.284 C 302.543,328.58 299.591,328.183 295.631,326.384 L 295.631,326.384 C 291.671,330.704 287.711,334.7 283.608,338.228 C 279.504,341.829 275.4,344.781 271.152,347.624 L 271.152,347.624 C 272.34,349.784 272.484,351.656 271.584,353.384 C 270.612,355.076 267.517,357.2 265.5,357.668 C 263.376,358.028 261.36,357.38 259.164,355.724 L 259.164,355.724 C 255.672,359.108 251.676,362.781 246.601,366.884 C 241.489,370.988 235.548,376.28 229.176,380.276 C 222.733,384.129 215.964,387.764 208.441,390.068 C 200.88,392.337 192.997,393.596 184.393,393.848 L 184.393,393.848 C 184.681,394.964 184.285,396.008 183.205,396.98 C 182.089,397.88 180.325,398.781 177.769,399.537 L 177.769,399.537 L 177.551,144.835 L 177.551,144.835 z M 293.075,280.447 C 287.855,287.035 283.103,292.47 278.819,297.15 C 274.355,301.686 271.51,303.703 267.083,308.058 C 262.655,312.378 257.759,317.382 252.395,323.214 L 252.395,323.214 C 255.059,325.158 257.542,327.426 259.847,329.874 C 262.115,332.394 264.094,334.914 265.931,337.974 L 265.931,337.974 C 270.107,334.482 274.426,330.846 279.035,327.066 C 283.643,323.178 288.251,319.291 293.291,315.115 L 293.291,315.115 C 294.264,306.871 294.623,299.923 294.659,294.127 C 294.551,288.367 294.119,283.759 293.075,280.447 L 293.075,280.447 z M 237.239,329.011 C 239.903,330.415 242.135,332.467 244.475,334.771 C 246.706,337.112 248.794,340.82 250.594,343.124 C 252.286,345.428 253.51,347.156 254.41,348.452 L 254.41,348.452 C 251.458,351.08 248.398,353.924 244.942,356.588 C 241.486,359.18 238.39,361.52 233.854,364.724 C 229.138,367.964 222.045,372.968 217.15,375.848 C 212.254,378.548 209.698,379.556 204.478,380.96 C 199.078,382.22 192.814,383.084 185.29,383.552 L 185.29,383.552 L 185.29,355.508 L 185.29,355.508 C 189.179,355.112 193.75,354.068 199.294,352.088 C 204.838,350.036 212.83,346.616 218.267,343.772 C 223.559,340.821 227.735,337.472 230.939,334.989 C 234.107,332.503 236.159,330.559 237.239,329.011 L 237.239,329.011 z M 225.72,323.646 C 221.291,321.09 216.648,318.678 211.499,316.806 C 206.243,314.79 199.403,312.702 195.011,311.91 C 190.619,311.082 187.379,311.082 185.291,311.91 L 185.291,311.91 L 185.291,342.473 L 185.291,342.473 C 188.207,343.085 191.843,342.797 196.343,341.61 C 200.843,340.385 207.144,338.118 212.184,335.202 C 217.115,332.179 221.579,328.327 225.72,323.646 L 225.72,323.646 z M 323.1,234.979 C 321.66,237.355 319.68,240.163 317.016,243.943 C 314.352,247.579 311.112,251.971 307.295,256.975 L 307.295,256.975 C 307.476,265.543 307.619,272.167 307.728,277.532 C 307.764,282.752 307.764,286.387 307.728,288.439 L 307.728,288.439 C 311.795,286.711 314.82,283.292 316.799,278.179 C 318.743,272.887 318.852,262.988 319.499,257.623 C 320.111,252.367 319.715,250.135 320.399,246.499 C 320.939,242.647 321.839,238.903 323.1,234.979 L 323.1,234.979 z M 289.007,247.795 L 292.823,251.215 L 293.507,262.123 L 293.507,262.123 C 288.396,268.135 283.715,273.643 279.035,278.791 C 274.427,283.795 271.655,286.675 265.715,292.687 C 259.667,298.7 252.108,305.899 242.892,314.719 L 242.892,314.719 C 238.356,312.595 233.28,310.579 227.52,308.528 C 221.616,306.475 215.388,303.704 208.547,302.551 C 201.671,301.327 194.579,300.895 186.875,301.255 L 186.875,301.255 L 186.875,298.051 L 186.875,298.051 C 192.743,298.735 199.476,298.087 207.647,296.107 C 215.747,293.983 226.187,290.456 235.223,286.063 C 244.187,281.671 252.107,276.379 261.214,270.043 C 270.18,263.563 279.396,256.327 289.007,247.795 L 289.007,247.795 z M 281.771,237.355 C 276.119,229.507 269.819,223.027 262.331,217.915 C 254.808,212.659 245.519,208.879 237.239,206.575 C 228.779,204.271 221.075,204.559 212.615,204.235 C 204.191,203.839 195.659,203.839 186.875,204.235 L 186.875,204.235 L 186.875,288.259 L 186.875,288.259 C 192.167,288.871 198.359,288.511 205.848,286.783 C 213.299,284.982 222.335,282.823 231.156,278.215 C 239.904,273.463 249.156,266.047 257.796,259.171 C 266.291,252.259 274.14,245.131 281.771,237.355 L 281.771,237.355 z M 316.115,174.715 C 323.315,175.975 327.959,178.495 330.335,182.419 C 332.604,186.343 331.739,192.643 330.119,198.007 C 328.391,203.299 323.927,208.555 320.615,213.631 C 317.267,218.491 313.811,223.099 310.679,227.311 C 307.546,231.451 304.739,234.943 302.111,238.219 L 302.111,238.219 L 297.359,232.243 L 297.359,232.243 C 301.535,222.199 304.919,213.667 307.51,206.359 C 310.031,198.979 311.254,193.903 312.731,188.611 C 314.171,183.247 315.251,178.747 316.115,174.715 L 316.115,174.715 z M 303.228,171.295 C 299.232,170.215 295.452,169.351 291.492,168.307 C 287.532,167.227 283.608,166.363 279.721,165.319 L 279.721,165.319 C 278.281,170.899 275.401,175.903 270.937,180.475 C 266.329,184.975 260.749,190.123 252.829,192.463 C 244.766,194.551 234.865,193.651 223.705,193.939 C 212.581,194.299 200.413,194.515 186.625,194.587 L 186.625,194.587 L 186.625,198.223 L 186.625,198.223 C 192.854,197.827 200.413,197.611 209.701,197.575 C 218.917,197.539 232.849,196.711 241.777,198.007 C 250.669,199.123 254.953,200.887 262.8,204.847 C 270.613,208.843 278.857,214.387 288.109,221.767 L 288.109,221.767 C 292.825,210.463 296.389,200.671 298.945,192.247 C 301.499,183.715 302.795,176.911 303.228,171.295 L 303.228,171.295 z M 266.399,163.375 C 254.842,161.575 242.639,160.639 229.355,160.171 C 215.999,159.703 202.031,159.919 186.875,160.819 L 186.875,160.819 L 186.875,186.487 L 186.875,186.487 C 198.432,186.847 208.907,186.847 218.735,186.487 C 228.563,186.055 238.139,186.055 245.375,184.111 C 252.467,181.987 257.651,177.739 261.215,174.283 C 264.707,170.719 266.436,167.263 266.399,163.375 L 266.399,163.375 z "
   style="fill:#ffffff;fill-rule:evenodd;stroke:#ffffff;stroke-width:0.036;stroke-miterlimit:10"
   id="path17" />
<path
   d="M 30.059,308.563 C 30.095,320.624 34.127,334.303 42.587,350.143 C 50.975,366.019 70.523,385.351 80.135,402.883 C 89.603,420.271 88.919,437.947 99.323,453.823 C 109.763,469.591 123.875,489.571 142.236,496.843 C 160.595,503.899 191.664,502.171 208.368,496.375 C 224.856,490.435 230.976,477.943 241.02,461.959 C 250.956,445.759 258.551,416.239 267.839,400.759 C 277.091,385.423 287.675,381.211 295.991,370.339 C 304.127,359.287 312.047,346.003 316.547,335.491 C 320.903,324.978 322.883,315.871 322.343,307.77 L 322.343,307.77 L 312.083,319.398 L 312.083,319.398 C 311.184,326.275 309.527,330.558 306.72,332.827 C 303.875,335.022 300.276,334.77 295.524,332.359 L 295.524,332.359 L 278.568,348.018 L 278.568,348.018 C 278.423,354.21 276.732,358.279 273.635,360.51 C 270.467,362.598 265.896,362.85 259.776,360.978 L 259.776,360.978 C 254.16,369.403 247.356,376.207 239.22,381.966 C 230.94,387.654 219.419,392.154 211.068,394.926 C 202.715,397.554 195.66,398.598 189.612,398.058 L 189.612,398.058 C 186.12,400.615 182.591,401.911 178.883,402.09 C 175.103,402.198 171.323,401.154 167.255,398.958 L 167.255,398.958 C 151.595,397.374 138.239,393.702 126.611,387.798 C 114.947,381.822 105.551,373.902 97.991,363.642 L 97.991,363.642 C 92.951,363.571 88.739,362.779 85.499,361.411 C 82.187,359.827 79.847,357.595 78.335,355.146 C 76.859,352.734 76.211,350.106 76.535,347.119 L 76.535,347.119 L 60.443,332.827 L 60.443,332.827 C 55.151,334.303 51.083,333.943 48.383,331.459 C 45.575,328.975 44.135,324.511 43.919,318.066 L 43.919,318.066 C 39.311,314.898 34.703,311.73 30.059,308.563 L 30.059,308.563 z "
   style="fill:#ffffff;fill-rule:evenodd;stroke:#000000;stroke-width:0.036;stroke-miterlimit:10"
   id="path19" />
</svg>